<svg width="32" height="32" viewBox="0 0 32 32" fill="none" xmlns="http://www.w3.org/2000/svg">
<g clip-path="url(#clip0_44_180)">
<circle cx="16" cy="16" r="16" fill="white"/>
<path d="M23.5833 12.8333H22.695L20.8533 7.76325C20.7009 7.3452 20.4239 6.98396 20.0597 6.72825C19.6955 6.47255 19.2617 6.33468 18.8167 6.33325H17.0833C16.4875 6.33325 16 6.82075 16 7.41659C16 8.01242 16.4875 8.49992 17.0833 8.49992H18.8167L20.3983 12.8333H15.1875L14.7975 11.7499H14.895C15.4908 11.7499 15.9783 11.2624 15.9783 10.6666C15.9783 10.0708 15.4908 9.58325 14.895 9.58325H11.6667C11.0708 9.58325 10.5833 10.0708 10.5833 10.6666C10.5833 11.2624 11.0708 11.7499 11.6667 11.7499H12.4792L14.4508 17.1666H13.725C13.2483 14.7508 11.2225 12.9633 8.6875 12.8441C5.65417 12.6924 3 15.2166 3 18.2499C3 21.2833 5.38333 23.6666 8.41667 23.6666C11.0817 23.6666 13.2375 21.8358 13.725 19.3333H18.275C18.7517 21.7491 20.7775 23.5366 23.3125 23.6558C26.3458 23.7966 29 21.2833 29 18.2391C29 15.2166 26.6167 12.8333 23.5833 12.8333ZM9.5 19.3333H11.4717C11.0167 20.6658 9.73833 21.5866 8.2 21.4891C6.58583 21.3916 5.2425 20.0266 5.16667 18.4016C5.09083 16.5058 6.5425 14.9999 8.41667 14.9999C9.8575 14.9999 11.0383 15.8991 11.4717 17.1666H9.5C8.90417 17.1666 8.41667 17.6541 8.41667 18.2499C8.41667 18.8458 8.90417 19.3333 9.5 19.3333ZM18.275 17.1666H16.7583L15.9675 14.9999H19.25C18.7733 15.6283 18.4267 16.3541 18.275 17.1666ZM23.4533 21.4999C21.785 21.4349 20.3767 20.0158 20.3333 18.3366C20.3117 17.2966 20.7558 16.3866 21.4708 15.7799L22.1425 17.6216C22.3483 18.1849 22.9658 18.4774 23.5292 18.2716C24.0925 18.0658 24.385 17.4483 24.1792 16.8849L23.4967 15.0108L23.5075 14.9999C23.9418 14.9851 24.3747 15.0585 24.7799 15.2156C25.1851 15.3727 25.5543 15.6103 25.8651 15.914C26.1759 16.2178 26.422 16.5814 26.5884 16.9828C26.7548 17.3843 26.8381 17.8153 26.8333 18.2499C26.8333 20.1133 25.3383 21.5649 23.4533 21.4999Z" fill="url(#paint0_linear_44_180)"/>
</g>
<defs>
<linearGradient id="paint0_linear_44_180" x1="16" y1="6.33325" x2="16" y2="23.6666" gradientUnits="userSpaceOnUse">
<stop stop-color="#FFB60D"/>
<stop offset="1" stop-color="#E59317"/>
</linearGradient>
<clipPath id="clip0_44_180">
<rect width="32" height="32" fill="white"/>
</clipPath>
</defs>
</svg>
